<svg width="391" height="435" viewBox="0 0 391 435" fill="none" xmlns="http://www.w3.org/2000/svg">
<g filter="url(#filter0_d_89_5180)">
<rect x="15" y="6" width="360" height="400" rx="12" fill="white"/>
</g>
<path d="M143.526 369.794C121.414 360.855 101.952 346.414 86.9871 327.842C72.022 309.27 62.0499 287.182 58.0166 263.674C53.9834 240.167 56.0228 216.019 63.9414 193.52C71.86 171.022 85.3952 150.92 103.263 135.121C121.131 119.321 142.739 108.349 166.037 103.244C189.336 98.1397 213.552 99.072 236.389 105.953C259.226 112.834 279.927 125.435 296.527 142.561C313.127 159.687 325.077 180.771 331.242 203.811L196 240L143.526 369.794Z" fill="#FFD582"/>
<mask id="path-3-outside-1_89_5180" maskUnits="userSpaceOnUse" x="21.2777" y="76.4415" width="371.591" height="360.428" fill="black">
<rect fill="white" x="21.2777" y="76.4415" width="371.591" height="360.428"/>
<path d="M223.63 102.754C245.465 107.149 265.937 116.692 283.344 130.588C300.751 144.484 314.592 162.333 323.716 182.652C332.84 202.971 336.984 225.174 335.804 247.416C334.624 269.659 328.154 291.298 316.932 310.538C305.709 329.778 290.058 346.063 271.279 358.039C252.499 370.016 231.133 377.339 208.955 379.4C186.777 381.461 164.427 378.2 143.762 369.889C123.097 361.578 104.713 348.457 90.1378 331.614L196 240L223.63 102.754Z"/>
</mask>
<path d="M223.63 102.754C245.465 107.149 265.937 116.692 283.344 130.588C300.751 144.484 314.592 162.333 323.716 182.652C332.84 202.971 336.984 225.174 335.804 247.416C334.624 269.659 328.154 291.298 316.932 310.538C305.709 329.778 290.058 346.063 271.279 358.039C252.499 370.016 231.133 377.339 208.955 379.4C186.777 381.461 164.427 378.2 143.762 369.889C123.097 361.578 104.713 348.457 90.1378 331.614L196 240L223.63 102.754Z" fill="#CEC5FF"/>
<path d="M223.63 102.754C245.465 107.149 265.937 116.692 283.344 130.588C300.751 144.484 314.592 162.333 323.716 182.652C332.84 202.971 336.984 225.174 335.804 247.416C334.624 269.659 328.154 291.298 316.932 310.538C305.709 329.778 290.058 346.063 271.279 358.039C252.499 370.016 231.133 377.339 208.955 379.4C186.777 381.461 164.427 378.2 143.762 369.889C123.097 361.578 104.713 348.457 90.1378 331.614L196 240L223.63 102.754Z" stroke="white" stroke-width="4" mask="url(#path-3-outside-1_89_5180)"/>
<path d="M302.076 42V31.0909H309.065V32.7475H304.052V35.7092H308.585V37.3658H304.052V42H302.076ZM313.651 42.1598C312.831 42.1598 312.123 41.9893 311.526 41.6484C310.933 41.304 310.477 40.8175 310.157 40.1889C309.837 39.5568 309.678 38.8129 309.678 37.957C309.678 37.1154 309.837 36.3768 310.157 35.7411C310.48 35.1019 310.931 34.6048 311.51 34.2496C312.089 33.891 312.769 33.7116 313.55 33.7116C314.054 33.7116 314.53 33.7933 314.978 33.9567C315.429 34.1165 315.826 34.3651 316.171 34.7024C316.519 35.0398 316.792 35.4695 316.991 35.9915C317.19 36.5099 317.29 37.1278 317.29 37.8452V38.4364H310.583V37.1367H315.441C315.438 36.7674 315.358 36.4389 315.201 36.1513C315.045 35.8601 314.827 35.631 314.546 35.4641C314.269 35.2972 313.946 35.2138 313.577 35.2138C313.183 35.2138 312.836 35.3097 312.538 35.5014C312.24 35.6896 312.007 35.9382 311.84 36.2472C311.677 36.5526 311.594 36.8881 311.59 37.2539V38.3885C311.59 38.8643 311.677 39.2727 311.851 39.6136C312.025 39.951 312.268 40.2102 312.581 40.3913C312.893 40.5689 313.259 40.6577 313.678 40.6577C313.959 40.6577 314.212 40.6186 314.44 40.5405C314.667 40.4588 314.864 40.3398 315.031 40.1836C315.198 40.0273 315.324 39.8338 315.409 39.603L317.21 39.8054C317.096 40.2812 316.879 40.6967 316.56 41.0518C316.244 41.4034 315.839 41.6768 315.345 41.8722C314.852 42.0639 314.287 42.1598 313.651 42.1598ZM318.771 42V33.8182H320.614V35.2085H320.71C320.88 34.7397 321.163 34.3739 321.557 34.1112C321.951 33.8448 322.421 33.7116 322.968 33.7116C323.522 33.7116 323.989 33.8466 324.369 34.1165C324.753 34.3828 325.023 34.7468 325.179 35.2085H325.264C325.445 34.7539 325.751 34.3917 326.18 34.1218C326.614 33.8484 327.127 33.7116 327.72 33.7116C328.473 33.7116 329.087 33.9496 329.563 34.4254C330.039 34.9013 330.277 35.5955 330.277 36.5082V42H328.343V36.8065C328.343 36.2987 328.208 35.9276 327.938 35.6932C327.668 35.4553 327.338 35.3363 326.947 35.3363C326.482 35.3363 326.118 35.4819 325.855 35.7731C325.596 36.0607 325.467 36.4354 325.467 36.897V42H323.576V36.7266C323.576 36.304 323.448 35.9666 323.192 35.7145C322.94 35.4624 322.61 35.3363 322.201 35.3363C321.924 35.3363 321.672 35.4073 321.445 35.5494C321.218 35.6879 321.036 35.8849 320.902 36.1406C320.767 36.3928 320.699 36.6875 320.699 37.0249V42H318.771ZM334.437 42.1651C333.919 42.1651 333.452 42.0728 333.036 41.8881C332.624 41.6999 332.298 41.4229 332.056 41.0572C331.818 40.6914 331.699 40.2404 331.699 39.7042C331.699 39.2425 331.784 38.8608 331.955 38.5589C332.125 38.2571 332.358 38.0156 332.653 37.8345C332.947 37.6534 333.279 37.5167 333.649 37.4244C334.022 37.3285 334.407 37.2592 334.805 37.2166C335.284 37.1669 335.673 37.1225 335.971 37.0835C336.27 37.0408 336.486 36.9769 336.621 36.8917C336.76 36.8029 336.829 36.6662 336.829 36.4815V36.4496C336.829 36.0483 336.71 35.7376 336.472 35.5174C336.234 35.2972 335.891 35.1871 335.444 35.1871C334.972 35.1871 334.597 35.2901 334.32 35.4961C334.047 35.7021 333.862 35.9453 333.766 36.2259L331.966 35.9702C332.108 35.473 332.342 35.0575 332.669 34.7237C332.995 34.3864 333.395 34.1342 333.867 33.9673C334.34 33.7969 334.862 33.7116 335.433 33.7116C335.827 33.7116 336.22 33.7578 336.61 33.8501C337.001 33.9425 337.358 34.0952 337.681 34.3082C338.004 34.5178 338.264 34.8036 338.459 35.1658C338.658 35.5281 338.757 35.9808 338.757 36.5241V42H336.903V40.8761H336.84C336.722 41.1033 336.557 41.3164 336.344 41.5153C336.135 41.7106 335.87 41.8686 335.55 41.9893C335.234 42.1065 334.863 42.1651 334.437 42.1651ZM334.938 40.7482C335.325 40.7482 335.661 40.6719 335.945 40.5192C336.229 40.3629 336.447 40.157 336.6 39.9013C336.756 39.6456 336.834 39.3668 336.834 39.065V38.1009C336.774 38.1506 336.671 38.1967 336.525 38.2393C336.383 38.282 336.223 38.3192 336.046 38.3512C335.868 38.3832 335.692 38.4116 335.518 38.4364C335.344 38.4613 335.194 38.4826 335.066 38.5004C334.778 38.5394 334.521 38.6033 334.293 38.6921C334.066 38.7809 333.887 38.9052 333.755 39.065C333.624 39.2212 333.558 39.4237 333.558 39.6722C333.558 40.0273 333.688 40.2955 333.947 40.4766C334.206 40.6577 334.537 40.7482 334.938 40.7482ZM342.474 31.0909V42H340.546V31.0909H342.474ZM347.929 42.1598C347.109 42.1598 346.401 41.9893 345.804 41.6484C345.211 41.304 344.755 40.8175 344.435 40.1889C344.115 39.5568 343.956 38.8129 343.956 37.957C343.956 37.1154 344.115 36.3768 344.435 35.7411C344.758 35.1019 345.209 34.6048 345.788 34.2496C346.367 33.891 347.047 33.7116 347.828 33.7116C348.332 33.7116 348.808 33.7933 349.256 33.9567C349.707 34.1165 350.104 34.3651 350.449 34.7024C350.797 35.0398 351.07 35.4695 351.269 35.9915C351.468 36.5099 351.567 37.1278 351.567 37.8452V38.4364H344.861V37.1367H349.719C349.716 36.7674 349.636 36.4389 349.479 36.1513C349.323 35.8601 349.105 35.631 348.824 35.4641C348.547 35.2972 348.224 35.2138 347.855 35.2138C347.461 35.2138 347.114 35.3097 346.816 35.5014C346.518 35.6896 346.285 35.9382 346.118 36.2472C345.955 36.5526 345.871 36.8881 345.868 37.2539V38.3885C345.868 38.8643 345.955 39.2727 346.129 39.6136C346.303 39.951 346.546 40.2102 346.859 40.3913C347.171 40.5689 347.537 40.6577 347.956 40.6577C348.237 40.6577 348.49 40.6186 348.718 40.5405C348.945 40.4588 349.142 40.3398 349.309 40.1836C349.476 40.0273 349.602 39.8338 349.687 39.603L351.488 39.8054C351.374 40.2812 351.157 40.6967 350.838 41.0518C350.522 41.4034 350.117 41.6768 349.623 41.8722C349.13 42.0639 348.565 42.1598 347.929 42.1598Z" fill="#2C2D2E"/>
<rect x="270" y="26" width="20" height="20" rx="2" fill="#CEC5FF"/>
<path d="M302.076 61.0909H304.494L307.733 68.9957H307.861L311.099 61.0909H313.518V72H311.621V64.5053H311.52L308.505 71.968H307.088L304.074 64.4893H303.972V72H302.076V61.0909ZM317.789 72.1651C317.27 72.1651 316.803 72.0728 316.388 71.8881C315.976 71.6999 315.649 71.4229 315.408 71.0572C315.17 70.6914 315.051 70.2404 315.051 69.7042C315.051 69.2425 315.136 68.8608 315.307 68.5589C315.477 68.2571 315.71 68.0156 316.004 67.8345C316.299 67.6534 316.631 67.5167 317.001 67.4244C317.373 67.3285 317.759 67.2592 318.156 67.2166C318.636 67.1669 319.025 67.1225 319.323 67.0835C319.621 67.0408 319.838 66.9769 319.973 66.8917C320.111 66.8029 320.181 66.6662 320.181 66.4815V66.4496C320.181 66.0483 320.062 65.7376 319.824 65.5174C319.586 65.2972 319.243 65.1871 318.796 65.1871C318.323 65.1871 317.949 65.2901 317.672 65.4961C317.398 65.7021 317.214 65.9453 317.118 66.2259L315.317 65.9702C315.459 65.473 315.694 65.0575 316.02 64.7237C316.347 64.3864 316.747 64.1342 317.219 63.9673C317.691 63.7969 318.213 63.7116 318.785 63.7116C319.179 63.7116 319.572 63.7578 319.962 63.8501C320.353 63.9425 320.71 64.0952 321.033 64.3082C321.356 64.5178 321.615 64.8036 321.811 65.1658C322.009 65.5281 322.109 65.9808 322.109 66.5241V72H320.255V70.8761H320.191C320.074 71.1033 319.909 71.3164 319.696 71.5153C319.486 71.7106 319.222 71.8686 318.902 71.9893C318.586 72.1065 318.215 72.1651 317.789 72.1651ZM318.29 70.7482C318.677 70.7482 319.012 70.6719 319.296 70.5192C319.58 70.3629 319.799 70.157 319.952 69.9013C320.108 69.6456 320.186 69.3668 320.186 69.065V68.1009C320.126 68.1506 320.023 68.1967 319.877 68.2393C319.735 68.282 319.575 68.3192 319.398 68.3512C319.22 68.3832 319.044 68.4116 318.87 68.4364C318.696 68.4613 318.545 68.4826 318.417 68.5004C318.13 68.5394 317.872 68.6033 317.645 68.6921C317.418 68.7809 317.238 68.9052 317.107 69.065C316.976 69.2212 316.91 69.4237 316.91 69.6722C316.91 70.0273 317.04 70.2955 317.299 70.4766C317.558 70.6577 317.888 70.7482 318.29 70.7482ZM325.826 61.0909V72H323.898V61.0909H325.826ZM331.281 72.1598C330.461 72.1598 329.752 71.9893 329.156 71.6484C328.563 71.304 328.106 70.8175 327.787 70.1889C327.467 69.5568 327.307 68.8129 327.307 67.957C327.307 67.1154 327.467 66.3768 327.787 65.7411C328.11 65.1019 328.561 64.6048 329.14 64.2496C329.719 63.891 330.399 63.7116 331.18 63.7116C331.684 63.7116 332.16 63.7933 332.607 63.9567C333.058 64.1165 333.456 64.3651 333.801 64.7024C334.149 65.0398 334.422 65.4695 334.621 65.9915C334.82 66.5099 334.919 67.1278 334.919 67.8452V68.4364H328.213V67.1367H333.071C333.067 66.7674 332.987 66.4389 332.831 66.1513C332.675 65.8601 332.457 65.631 332.176 65.4641C331.899 65.2972 331.576 65.2138 331.207 65.2138C330.812 65.2138 330.466 65.3097 330.168 65.5014C329.87 65.6896 329.637 65.9382 329.47 66.2472C329.307 66.5526 329.223 66.8881 329.22 67.2539V68.3885C329.22 68.8643 329.307 69.2727 329.481 69.6136C329.655 69.951 329.898 70.2102 330.21 70.3913C330.523 70.5689 330.889 70.6577 331.308 70.6577C331.588 70.6577 331.842 70.6186 332.069 70.5405C332.297 70.4588 332.494 70.3398 332.661 70.1836C332.828 70.0273 332.954 69.8338 333.039 69.603L334.839 69.8054C334.726 70.2812 334.509 70.6967 334.189 71.0518C333.873 71.4034 333.469 71.6768 332.975 71.8722C332.481 72.0639 331.917 72.1598 331.281 72.1598Z" fill="#2C2D2E"/>
<rect x="270" y="56" width="20" height="20" rx="2" fill="#FFD582"/>
<defs>
<filter id="filter0_d_89_5180" x="0" y="0.22" width="390" height="430" filterUnits="userSpaceOnUse" color-interpolation-filters="sRGB">
<feFlood flood-opacity="0" result="BackgroundImageFix"/>
<feColorMatrix in="SourceAlpha" type="matrix" values="0 0 0 0 0 0 0 0 0 0 0 0 0 0 0 0 0 0 127 0" result="hardAlpha"/>
<feOffset dy="9.22"/>
<feGaussianBlur stdDeviation="7.5"/>
<feColorMatrix type="matrix" values="0 0 0 0 0.635294 0 0 0 0 0.768627 0 0 0 0 0.913725 0 0 0 0.05 0"/>
<feBlend mode="normal" in2="BackgroundImageFix" result="effect1_dropShadow_89_5180"/>
<feBlend mode="normal" in="SourceGraphic" in2="effect1_dropShadow_89_5180" result="shape"/>
</filter>
</defs>
</svg>
